#!OML:ASF H:\Male1\Project 1\Capture day 1\Session 1\Male1.ASF
:FULLY-SPECIFIED
:DEGREES
534
root 9.58941 15.2937 -2.0499 4.72876 -73.7793 -7.21376
lowerback 7.7385 0.541516 -5.86695
upperback 3.129 0.211592 -0.582302
thorax -1.11468 0.0397552 2.67525
lowerneck -4.38764 -13.6803 -4.15738
upperneck 8.81317 -18.6743 5.50354
head 4.26044 -9.13689 1.24947
rclavicle -9.34288e-015 3.02153e-014
rhumerus -34.0232 8.20408 -90.8784
rradius 30.0829
rwrist -13.6149
rhand -13.4492 5.40311
rfingers 7.12502
rthumb 12.6601 -24.1932
lclavicle -9.34288e-015 3.02153e-014
lhumerus -35.7898 13.8568 75.6788
lradius 19.5676
lwrist -11.9463
lhand -16.8933 11.0605
lfingers 7.12502
lthumb 9.33832 40.8336
rfemur -7.61731 16.1575 24.0893
rtibia 28.8739
rfoot -37.8254 -28.9239
rtoes -4.36573
lfemur -8.57093 -20.4522 -21.5317
ltibia 32.393
lfoot -30.3984 28.3592
ltoes -1.27679
535
root 9.57663 15.2943 -2.05364 4.78908 -73.5184 -7.19797
lowerback 7.75885 0.507596 -5.85659
upperback 3.0723 0.166309 -0.551927
thorax -1.18072 0.0209409 2.7048
lowerneck -4.35209 -13.8131 -4.19797
upperneck 8.74211 -18.8479 5.52023
head 4.24658 -9.22469 1.25164
rclavicle -2.28602e-014 1.74931e-014
rhumerus -34.0091 8.02056 -90.7854
rradius 29.5775
rwrist -13.648
rhand -13.4793 5.2922
rfingers 7.12502
rthumb 12.6311 -24.3059
lclavicle -2.28602e-014 1.74931e-014
lhumerus -36.1472 13.0364 75.8261
lradius 19.7712
lwrist -11.4846
lhand -16.8495 11.1566
lfingers 7.12502
lthumb 9.38054 40.9279
rfemur -7.57056 16.1654 24.1527
rtibia 28.8171
rfoot -38.1021 -28.9981
rtoes -4.21996
lfemur -8.67079 -20.5046 -21.4475
ltibia 32.4322
lfoot -30.3885 28.4006
ltoes -1.90875
536
root 9.56466 15.294 -2.05639 4.77755 -73.3033 -7.15087
lowerback 7.79633 0.491233 -5.84194
upperback 3.04804 0.14366 -0.521106
thorax -1.22464 0.0117204 2.73047
lowerneck -4.33284 -13.916 -4.23185
upperneck 8.63966 -18.9783 5.53571
head 4.22295 -9.29118 1.25602
rclavicle 7.45443e-015 5.56597e-015
rhumerus -33.9584 7.92889 -90.7169
rradius 29.0767
rwrist -13.7102
rhand -13.4951 5.1669
rfingers 7.12502
rthumb 12.6159 -24.4321
lclavicle 7.45443e-015 5.56597e-015
lhumerus -36.3715 12.2403 76.0552
lradius 20.0161
lwrist -11.0103
lhand -16.7723 11.3667
lfingers 7.12502
lthumb 9.45509 41.1346
rfemur -7.49404 16.1975 24.21
rtibia 28.7745
rfoot -38.3791 -29.058
rtoes -3.99457
lfemur -8.71666 -20.5727 -21.4083
ltibia 32.4723
lfoot -30.391 28.4514
ltoes -2.28326
537
root 9.55343 15.2931 -2.05877 4.67713 -73.1329 -7.04281
lowerback 7.84447 0.48979 -5.8432
upperback 3.04628 0.138976 -0.491206
thorax -1.2527 0.0101504 2.76257
lowerneck -4.31824 -13.9902 -4.26096
upperneck 8.51329 -19.0669 5.54313
head 4.18949 -9.33758 1.26144
rclavicle 1.39149e-015 3.65764e-014
rhumerus -33.8749 7.94006 -90.6776
rradius 28.5887
rwrist -13.7624
rhand -13.4607 5.06075
rfingers 7.12502
rthumb 12.649 -24.5362
lclavicle 1.39149e-015 3.65764e-014
lhumerus -36.4777 11.5017 76.3405
lradius 20.288
lwrist -10.543
lhand -16.6854 11.644
lfingers 7.12502
lthumb 9.53894 41.4081
rfemur -7.40353 16.2599 24.2528
rtibia 28.7574
rfoot -38.6734 -29.0957
rtoes -3.61995
lfemur -8.70999 -20.672 -21.4177
ltibia 32.4954
lfoot -30.3905 28.533
ltoes -2.34512
538
root 9.54222 15.2919 -2.0605 4.47516 -73.0127 -6.84053
lowerback 7.87892 0.503134 -5.86836
upperback 3.05408 0.152962 -0.469257
thorax -1.26493 0.0170118 2.79819
lowerneck -4.29022 -14.0392 -4.28133
upperneck 8.36835 -19.1195 5.53603
head 4.1442 -9.36725 1.2664
rclavicle 1.21259e-014 1.90833e-014
rhumerus -33.7655 8.01119 -90.6604
rradius 28.1128
rwrist -13.7335
rhand -13.3738 5.00053
rfingers 7.12502
rthumb 12.7328 -24.5912
lclavicle 1.21259e-014 1.90833e-014
lhumerus -36.4807 10.8687 76.6428
lradius 20.5516
lwrist -10.1407
lhand -16.63 11.9515
lfingers 7.12502
lthumb 9.59239 41.7131
rfemur -7.32075 16.3277 24.2604
rtibia 28.7713
rfoot -38.9509 -29.1048
rtoes -3.17727
lfemur -8.65746 -20.8274 -21.4862
ltibia 32.4906
lfoot -30.4044 28.6642
ltoes -2.07997
539
root 9.5305 15.2904 -2.06127 4.15197 -72.9331 -6.51886
lowerback 7.89401 0.528003 -5.9181
upperback 3.06254 0.181364 -0.462528
thorax -1.26704 0.0306419 2.83055
lowerneck -4.26839 -14.0687 -4.32578
upperneck 7.968 -19.1202 5.35748
head 4.44665 -9.39415 1.3807
rclavicle 2.22639e-014 -5.56597e-015
rhumerus -33.6324 8.09598 -90.6611
rradius 27.6376
rwrist -13.5869
rhand -13.2631 4.99791
rfingers 7.12502
rthumb 12.8396 -24.5872
lclavicle 2.22639e-014 -5.56597e-015
lhumerus -36.398 10.3752 76.9261
lradius 20.7746
lwrist -9.84353
lhand -16.654 12.2102
lfingers 7.12502
lthumb 9.5692 41.9729
rfemur -7.2463 16.3773 24.22
rtibia 28.8125
rfoot -39.1935 -29.0835
rtoes -2.75611
lfemur -8.56018 -21.0454 -21.6226
ltibia 32.458
lfoot -30.4503 28.8382
ltoes -1.55664
